<?xml version="1.0" encoding="utf-8"?>
<!-- Generator: Adobe Illustrator 22.1.0, SVG Export Plug-In . SVG Version: 6.00 Build 0)  -->
<svg version="1.1" id="圖層_1" xmlns="http://www.w3.org/2000/svg" xmlns:xlink="http://www.w3.org/1999/xlink" x="0px" y="0px"
	 width="66.8px" height="46.1px" viewBox="0 0 66.8 46.1" style="enable-background:new 0 0 66.8 46.1;" xml:space="preserve">
<style type="text/css">
	.st0{fill:#801C21;}
	.st1{fill:#FF6B00;}
</style>
<g>
	<g>
		<path class="st0" d="M50.3,37.9c0-2.5,0.7-4.5,2.3-5.9c1.5-1.5,3.5-2.2,6-2.2V31l0,0c-1,0-1.8,0.6-2.3,1.7c-0.5,1.1-0.8,2.8-0.8,5
			s0.3,3.9,0.8,5s1.3,1.7,2.3,1.7l0,0V46c-2.5,0-4.5-0.7-6-2.2C51.1,42.4,50.3,40.4,50.3,37.9z M58.5,29.8
			C58.5,29.8,58.6,29.8,58.5,29.8c2.5,0,4.5,0.7,6,2.2s2.3,3.5,2.3,5.9c0,2.5-0.7,4.5-2.2,5.9c-1.5,1.5-3.5,2.2-6,2.2l0,0v-1.6
			c1,0,1.8-0.6,2.3-1.7c0.5-1.1,0.8-2.8,0.8-5s-0.3-3.9-0.8-5c-0.5-1.1-1.3-1.7-2.3-1.7v-1.2"/>
		<path class="st0" d="M10.2,38.6h-4L5.4,41c-0.1,0.2-0.1,0.3-0.1,0.5c0,0.1,0,0.2,0,0.3c0,0.5,0.8,2,1.2,2.2c0.4,0.3,1,0.4,1.8,0.4
			v1.7H0v-1.8c1.5-0.2,2.7-1.7,3.6-4.1V40l6.6-17.8v5.1l-3.2,9h3.2V38.6z M25,44.4c0.6-0.1,0.8-0.6,0.9-1.2v-10
			c-0.1-0.6-0.2-0.9-0.3-1.1c-0.3-0.3-0.8-0.4-1.7-0.5v-1.4l6.1-0.5l0,0h0.4v2.8c0.6-0.8,1.2-1.4,1.8-1.8c0.8-0.5,1.7-0.8,2.7-0.8
			s2.1,0.3,2.8,0.8c0.2,0.1,1.7,1.5,1.8,2.6c0.5-1,1.5-2.2,2.1-2.6c0.8-0.5,1.7-0.8,2.7-0.8s2.1,0.3,2.8,0.8
			c0.2,0.1,1.7,1.5,1.8,2.7v10.4c0,0.4,0.5,1.2,1.9,1.2v1.2h-8.1V45c0.7,0.1,2.1-0.4,2-1.3v-9.1v-0.3c-0.2-0.4-0.5-1.6-2-1.6
			c-1,0-1.7,0.5-2.2,1.4c-0.3,0.6-0.8,1.4-1,2.4v7.2c0,0.4,0.5,1.2,1.9,1.2v1.2h-8.1v-1.2c0.6,0.1,2-0.4,2-1.3v-9.1v-0.3
			c-0.2-0.4-0.5-1.6-2-1.6c-1,0-1.7,0.4-2.2,1.4c-0.3,0.6-0.5,1.3-0.7,2.4v6.8c0.1,0.5,0.2,0.9,0.3,1.1c0.2,0.2,0.7,0.4,1.3,0.4V46
			H13.8v-1.6H14c0.8,0,0.9-0.1,1.3-0.3c0.3-0.2,0.5-0.6,0.5-1c0-0.2,0-0.3-0.1-0.5c0-0.2-0.1-0.4-0.1-0.5l-1.2-3.5h-4.1v-2.3h3.2
			l-2.9-9.7l-0.3,0.7v-5.1l0.9-2.4h2.1L20,40.1c0.4,1.3,0.9,3.1,1.3,3.5s0.9,0.7,1.6,0.8L25,44.4"/>
	</g>
</g>
<path class="st1" d="M28,10.7c-0.1-1.3-0.3-2.6-0.8-3.9c-0.7-1.9-1-3.1-1-3.8c0-1,0.2-1.7,0.7-2.2c0.5-0.6,1-0.8,1.7-0.8
	c0.6,0,1.1,0.2,1.6,0.8C30.6,1.3,30.8,2,30.8,3c0,0.8-0.3,2-0.7,3.5c-0.5,1.5-0.8,2.9-0.9,4.2c1.1-0.7,2-1.5,2.9-2.4
	c1.3-1.5,2.3-2.4,2.9-2.8C35.6,5.2,36.2,5,36.8,5s1.2,0.2,1.6,0.6c0.5,0.4,0.7,0.9,0.7,1.5c0,0.7-0.3,1.3-1,1.9
	c-0.6,0.5-2.2,1.1-4.7,1.6c-1.5,0.3-2.7,0.7-3.7,1.1c1,0.5,2.2,0.9,3.7,1.2c2.3,0.4,3.8,0.9,4.6,1.6c0.7,0.6,1.1,1.3,1.1,2
	c0,0.6-0.2,1.1-0.7,1.5c-0.4,0.4-0.9,0.6-1.5,0.6S35.7,18.4,35,18s-1.6-1.3-2.8-2.7c-0.8-0.9-1.8-1.8-3-2.6c0,1.1,0.3,2.2,0.7,3.5
	c0.7,2.2,1,3.7,1,4.5s-0.2,1.4-0.7,1.9s-1,0.8-1.5,0.8c-0.7,0-1.4-0.3-1.9-0.8c-0.4-0.4-0.6-1-0.6-1.9s0.2-2,0.7-3.3
	c0.4-1.3,0.7-2.2,0.8-2.6c0.1-0.5,0.2-1.2,0.3-2.1c-1.1,0.7-2.1,1.6-3,2.5c-1.4,1.5-2.5,2.5-3.2,2.9c-0.5,0.3-1,0.5-1.6,0.5
	c-0.7,0-1.2-0.2-1.7-0.7c-0.5-0.4-0.7-0.9-0.7-1.4s0.2-1,0.6-1.5s1-1,1.8-1.3c0.5-0.2,1.7-0.5,3.5-0.9c1.2-0.2,2.4-0.6,3.5-1.1
	c-1-0.5-2.3-0.9-3.7-1.2c-2.4-0.5-3.8-0.9-4.4-1.3c-0.9-0.6-1.3-1.4-1.3-2.3c0-0.5,0.2-1,0.6-1.4s0.9-0.6,1.5-0.6s1.3,0.2,2,0.6
	s1.6,1.2,2.6,2.4C25.8,9.1,26.9,10,28,10.7z"/>
</svg>
